<?xml version="1.0" encoding="utf-8"?>
<!-- Generator: Adobe Illustrator 14.0.0, SVG Export Plug-In . SVG Version: 6.00 Build 43363)  -->
<!DOCTYPE svg PUBLIC "-//W3C//DTD SVG 1.1//EN" "http://www.w3.org/Graphics/SVG/1.1/DTD/svg11.dtd">
<svg version="1.1" id="Layer_1" xmlns="http://www.w3.org/2000/svg" xmlns:xlink="http://www.w3.org/1999/xlink" x="0px" y="0px"
	 width="200px" height="45px" viewBox="0 0 200 45" enable-background="new 0 0 200 45" xml:space="preserve">
<g>
	<path fill="#FFFFFF" d="M130.218,1.679c10.179,0,18.43,8.251,18.43,18.429s-8.251,18.431-18.43,18.431
		c-10.18,0-18.432-8.253-18.432-18.431S120.038,1.679,130.218,1.679"/>
	<path fill="#F47920" d="M111.784,19.948c0.088-10.181,8.414-18.359,18.594-18.271c2.148,0.02,4.208,0.404,6.121,1.103l-9.461,6.698
		l-0.469,1.014l4.538-0.578l-9.974,22.353l13.924-0.009l3.93-28.362c5.804,3.145,9.723,9.313,9.66,16.375
		c-0.088,10.18-8.413,18.357-18.594,18.269C119.876,38.448,111.695,30.128,111.784,19.948"/>
	<path fill-rule="evenodd" clip-rule="evenodd" fill="#6C3F99" d="M163.157,32.372h0.784c0.491,0.009,0.743,0.202,0.72,0.667
		c-0.031,0.608-0.597,0.793-1.308,0.793H162.8L163.157,32.372z M160.224,37.596h1.644l0.629-2.547h0.177
		c0.737,0,0.789,0.064,0.9,0.904l0.229,1.643h1.633l-0.332-1.983c-0.064-0.414-0.188-1.099-0.668-1.145v-0.019
		c0.949-0.12,1.813-0.516,1.873-1.651c0.086-1.597-1.316-1.635-2.486-1.644h-1.959L160.224,37.596z"/>
	<path fill-rule="evenodd" clip-rule="evenodd" fill="#6C3F99" d="M158.056,31.154c-0.119,0.694-0.701,1.218-1.397,1.218h-1.392
		l-0.383,1.412h2.408l-0.303,1.22h-2.373l-0.656,2.592h-1.653l1.648-6.441H158.056z"/>
	<path fill-rule="evenodd" clip-rule="evenodd" fill="#6C3F99" d="M157.944,37.596h-0.559l1.623-6.441h1.65l-1.338,5.331
		C159.159,37.123,158.604,37.596,157.944,37.596"/>
	<path fill-rule="evenodd" clip-rule="evenodd" fill="#6C3F99" d="M177.27,31.154c-0.101,0.722-0.688,1.275-1.404,1.275h-0.454
		l-1.322,5.166h-1.664l1.325-5.166h-1.529l0.331-1.275H177.27z"/>
	<path fill-rule="evenodd" clip-rule="evenodd" fill="#6C3F99" d="M181.169,32.372h0.423c0.615,0,1.015,0.085,0.987,0.6
		c-0.025,0.442-0.444,0.73-1.127,0.73h-0.615L181.169,32.372z M178.228,37.596l2.795-0.037c1.406-0.018,2.558-0.665,2.631-2.03
		c0.039-0.707-0.42-1.134-1.118-1.246v-0.017c0.974-0.12,1.65-0.766,1.698-1.635c0.064-1.218-1.021-1.477-1.652-1.477h-2.729
		L178.228,37.596z M180.534,34.863h0.396c0.738,0,1.119,0.084,1.092,0.648c-0.037,0.624-0.602,0.864-1.428,0.864h-0.438
		L180.534,34.863z"/>
	<path fill-rule="evenodd" clip-rule="evenodd" fill="#6C3F99" d="M190.536,31.154h0.536l-0.759,3
		c-0.512,2.047-1.07,3.551-3.303,3.551c-1.377,0-2.432-0.515-2.35-2.027c0.028-0.512,0.121-0.924,0.199-1.219l0.871-3.305h1.659
		l-0.935,3.646c-0.076,0.304-0.143,0.554-0.15,0.701c-0.031,0.523,0.238,0.936,0.818,0.936c1.055,0,1.295-1.333,1.56-2.366
		l0.481-1.839C189.338,31.611,189.886,31.154,190.536,31.154"/>
	<path fill-rule="evenodd" clip-rule="evenodd" fill="#6C3F99" d="M195.591,32.521c-0.285-0.115-0.656-0.206-1.141-0.206
		c-0.65,0-1.183,0.104-1.211,0.621c-0.047,0.911,2.344,0.618,2.246,2.526c-0.09,1.782-1.691,2.242-3.116,2.242
		c-0.634,0-1.548-0.225-1.948-0.414c0.144-0.623,0.501-1.155,1.16-1.119c0.09,0.002,0.28,0.029,0.344,0.038
		c0.148,0.017,0.313,0.055,0.477,0.055c0.429,0.002,1.318-0.025,1.379-0.592c0.109-1.028-2.34-0.651-2.243-2.467
		c0.091-1.662,1.507-2.163,2.851-2.163c0.605,0,1.077,0.057,1.533,0.168L195.591,32.521z"/>
	<path fill-rule="evenodd" clip-rule="evenodd" fill="#6C3F99" d="M171.233,32.521c-0.285-0.115-0.654-0.206-1.139-0.206
		c-0.65,0-1.184,0.104-1.211,0.621c-0.051,0.911,2.344,0.618,2.245,2.526c-0.089,1.782-1.693,2.242-3.118,2.242
		c-0.631,0-1.546-0.225-1.944-0.414c0.142-0.623,0.499-1.155,1.159-1.119c0.09,0.002,0.279,0.029,0.342,0.038
		c0.151,0.017,0.313,0.055,0.48,0.055c0.424,0.002,1.313-0.025,1.375-0.592c0.111-1.028-2.34-0.651-2.24-2.467
		c0.09-1.662,1.503-2.163,2.85-2.163c0.604,0,1.074,0.057,1.531,0.168L171.233,32.521z"/>
	<path fill-rule="evenodd" clip-rule="evenodd" fill="#6C3F99" d="M189.222,12.732l-1.646,5.951h-3.457l1.648-5.951H189.222z
		 M196.432,12.732l-1.644,5.951h-3.473l1.645-5.951H196.432z M183.024,10.921h13.977c1.811,0,3.393,0.873,2.912,2.61l-1.922,6.962
		h-11.018c-2.329,0-2.913-1.587-2.913-1.587l-1.801,6.512h9.372c2.365,0,4.791-0.28,6.256-1.099c0,0-0.079,0.303-0.367,1.338
		c-0.328,1.161-1.278,1.775-3.057,1.775h-12.623c-1.441,0-3.098-1.037-2.432-3.418L183.024,10.921z"/>
	<path fill-rule="evenodd" clip-rule="evenodd" fill="#6C3F99" d="M163.201,13.119h3.124c0,0-0.271,0.589-0.623,1.094
		c-0.466,0.667-1.289,1.542-1.541,1.706h-0.874c0,0-0.112-0.431-0.181-1.44C163.043,13.603,163.201,13.119,163.201,13.119
		 M178.868,9.591l1.213,1.795c0.113,0.17,0.352,0.778-0.297,1.01c-0.789,0.279-2.165,0.334-2.895,0.366
		c-0.732,0.031-3.441,0.027-3.441,0.027l-0.883,3.17h7.269c0,0-0.337,1.675-2.274,1.675h-0.832c0,0-2.008,7.331-2.234,8.091
		c-0.229,0.76-0.959,2.322-3.376,2.322l2.888-10.413h-1.912c0,0-1.716,6.133-2.568,7.485c-0.854,1.354-2.08,2.926-5.031,2.926
		c0,0,0.598-0.562,1.277-1.483c0.69-0.939,1.15-1.912,1.15-1.912s-0.797,0.472-1.356,0.484c-0.3,0.008-0.745-0.188-1.239-1.111
		c-0.347-0.654-0.734-1.482-0.781-1.712c0,0-0.838,3.103-1.084,3.926c-0.241,0.82-1.616,1.811-3.405,1.811l1.548-5.616
		c0,0-1.879,2.771-3.191,3.724c-0.535,0.393-1.156,0.376-1.409,0.035c-0.304-0.412-1.003-1.641-1.284-2.196
		c0,0,1.262-0.246,2.232-0.77c1.473-0.798,3.068-1.808,3.675-2.674h-3.833l0.469-1.671h4.322l0.348-1.245h-4.322l0.468-1.675h3.682
		c0,0-0.218-0.324-0.82-1.471c-0.205-0.412-0.481-1.323-0.481-1.323h-1.598l0.379-1.358h4.916c0,0,0.129-0.446,0.277-1.008
		c0.153-0.574,0.156-1.063,0.156-1.063h1.701c0.556,0,1.014,0.29,0.816,0.816c-0.201,0.523-0.834,0.999-1.211,1.254h4.586
		c0,0-0.078,1.358-2.014,1.358l-0.236-0.002c0.193,0.27,0.39,0.545,0.579,0.8c0.118,0.164,0.142,0.273-0.167,0.505
		c-0.947,0.702-2.134,1.174-2.799,1.491h3.672c0,0-0.668,1.675-2.373,1.675h-2.307l-0.342,1.245h3.81c0,0-0.644,1.671-2.508,1.671
		h-1.778c0,0,1.586,2.114,3.566,2.659c0,0,0.783-1.822,1.497-4.315c0.614-2.147,1.978-7.087,1.978-7.087s1.669-0.067,3.219-0.404
		C177.487,10.706,178.868,9.591,178.868,9.591"/>
	<path fill="#00AB4E" d="M54.529,26.6c0,0,5.844-3.17,8.336-4.4l5.003-2.595c0,0,2.354-0.997,2.981-1.338
		c1.648-0.892,4.334-1.639,5.901-1.026c1.185,0.457-1.079,2.723-2.144,2.603l-0.565,0.069c-0.311,0.206-0.687,0.507-0.859,0.686
		c-1.85,1.923-3.149,3.665-4.148,5.554c-0.959,1.82-1.498,3.31-1.704,3.893c-0.252,0.715-0.205,1.635,0.265,1.939
		c0.911,0.587,6.682-2.613,9.222-3.909c3.361-1.714,4.991-2.56,7.032-3.429c2.331-0.995,4.56-1.784,5.573-0.919
		c0.539,0.462,0.347,1.617,0.257,2.171c-0.309,1.885-0.386,2.488-0.791,4.285c-0.375,1.681,0.252,2.484,0.791,2.779
		c0.995,0.549,4.011-0.688,4.868-1.029c3.628-1.453,8.431-3.496,13.168-5.813c4.732-2.316,10.714-5.078,15.788-6.246
		c3.316-0.764,7.572-1.901,10.443-2.362c4.733-0.755,8.436-0.856,9.189-0.479c0.869,0.434,1.438,0.642,1.508,1.374
		c0.072,0.686-1.678,0.839-6.41,0.839c-1.92,0-5.609,0.392-7.406,0.547c-3.908,0.343-9.875,1.87-11.453,2.348
		c-4.945,1.507-11.864,4.801-17.145,7.872c-2.963,1.722-6.764,3.958-8.712,4.904c-2.537,1.232-4.019,1.742-5.622,1.438
		c-0.995-0.187-1.988-0.976-2.109-2.179c-0.224-2.251,0.359-3.448,1.286-5.947c0.342-0.924,1.273-2.672,1.062-3.24
		c-0.239-0.65-1.747,0.171-2.365,0.463c-0.583,0.273-1.932,0.884-2.708,1.25c-1.956,0.928-3.466,1.927-5.351,3.019
		c-2.331,1.354-4.49,3.033-9.053,5.554c-1.005,0.556-3.254,1.511-4.387,0.755c-0.619-0.412-1.11-1.457-1.134-1.901
		c-0.118-2.382,1.235-5.025,3.122-7.597c1.178-1.609,2.695-3.027,4.183-4.628c0.791-0.85,1.809-1.668,2.434-2.129
		c-0.405,0.013-1.303,0.139-1.404,0.139c-0.627,0-1.922,0.206-3.293,0.822c-1.116,0.505-3.007,1.143-8.226,4.323
		c-0.939,0.594-1.947,1.254-3.055,2.003c-2.66,1.808-9.123,6.107-12.311,7.923c-3.091,1.763-6.017,2.933-7.817,1.611
		c-1.03-0.755-1.375-2.539-0.961-4.46c0.616-2.861,1.03-3.822,1.715-5.878c0.821-2.461,1.68-3.29,1.168-4.269
		c-0.641-1.216-3.815-0.199-4.667,0.135c-3.977,1.58-7.438,3.328-13.063,7.014c-2.476,1.622-9.809,7.218-16.495,12.396
		c-0.703,0.545-2.504,2.009-3.292,1.765c-1.439-0.445-1.607-3.004-0.207-5.417c0.859-1.473,1.271-1.852,2.16-2.849
		c0.619-0.547,0.892-0.957,1.166-0.749c0.273,0.2-0.033,0.854-0.308,1.953c-0.136,1.302,1.441-0.291,2.917-1.319
		c4.819-3.364,3.874-2.743,5.93-4.083c3.025-1.965,4.721-3.14,9.912-5.983c7.954-4.353,10.446-4.686,12.649-4.938
		c6.039-0.686,5.523,2.859,5.285,3.516c-1.579,4.304-2.952,9.414-1.853,10.716c0.48,0.444,0.823,0.341,1.781-0.103
		c1.633-0.758,6.127-3.027,7.65-3.895C49.968,29.171,52.428,27.751,54.529,26.6"/>
</g>
</svg>
